<svg width="119" height="26" viewBox="0 0 119 26" xmlns="http://www.w3.org/2000/svg">
    <g fill="none" fill-rule="evenodd">
        <path d="M112.625 22.305c1.562 0 2.9-.391 4.015-1.172 1.281-.896 1.938-2.219 1.969-3.969.042-2.458-1.13-4.224-3.516-5.297-1.156-.417-2.526-.729-4.109-.937-1.583-.209-2.74-.448-3.469-.72-1.114-.395-1.672-.947-1.672-1.655 0-.51.141-.912.422-1.203.281-.292.672-.438 1.172-.438h8.453l1.516-3.672h-9.969c-1.625 0-3.005.464-4.14 1.39-1.24 1-1.86 2.308-1.86 3.923 0 2.104 1.005 3.635 3.016 4.593 1.156.438 2.674.81 4.554 1.118 1.88.307 3.206.632 3.977.976.823.375 1.23 1 1.219 1.875.01.52-.136.922-.438 1.203-.281.209-.661.313-1.14.313l-15.266-.005-1.516 3.672 16.782.005z" fill="#FD8301" fill-rule="nonzero"/>
        <path d="M78.525 23.805 88.598 1.758h5.1l10.074 22.047H78.525zm14.13-6.767-1.492-3.457-1.443 3.458 2.935-.001z" stroke="#0C1016" stroke-width="3" fill="#FD8301" fill-rule="nonzero"/>
        <path d="M70.172 7.023h6.937c.333 0 .646.146.938.438.427.417.64 1.213.64 2.39 0 1.167-.213 1.959-.64 2.376-.292.291-.605.437-.938.437h-5.375l-1.562 3.781V7.023zm0 9.422h6.937c1.823 0 3.36-.625 4.61-1.875 1.114-1.114 1.671-2.687 1.671-4.718 0-2.032-.557-3.61-1.672-4.735-1.25-1.24-2.786-1.86-4.609-1.86H65.47v19.048h4.703v-5.86z" fill="#FD8301" fill-rule="nonzero"/>
        <path d="M26.094 22.356c-.282-.602-.473-1.128-.573-1.577-.1-.45-.196-1.215-.287-2.294l-16.015.054c-1.146 0-2.151-.432-3.016-1.297-1-1-1.5-2.536-1.5-4.61 0-1.874.5-3.312 1.5-4.312.865-.864 1.87-1.297 3.016-1.297l14.295-.008c.45-.893.88-1.562 1.29-2.008.266-.289.792-.862 1.577-1.72l-17.162-.03c-2.636 0-4.86.912-6.672 2.735C.849 7.68 0 9.893 0 12.632c0 2.938.849 5.25 2.547 6.938 1.812 1.823 4.036 2.735 6.672 2.735l16.875.05z" fill="#FFF" fill-rule="nonzero"/>
        <path fill="#FD8301" fill-rule="nonzero" d="M62.797 22.305V3.258h-3.282l-9.312 15.156 2.047 3.297 6.156-9.766v10.36z"/>
        <path d="M32.04 1.555c2.873-.121 6.036-.024 7.736 1.686 1.54 1.53 1.636 4.493 1.473 7.487-.038.709-.077 1.408-.077 2.061 0 3.63-1.043 6.379-2.983 8.308-2.102 2.113-4.679 3.176-7.736 3.176h-2.219c-.589 0-1.226.047-1.883.093l-.773.053c-2.5.155-4.917-.051-6.42-1.554-1.595-1.595-1.759-5.05-1.673-8.353.015-.593.03-1.174.03-1.723 0-3.415 1.032-6.071 2.984-8.01 2.101-2.114 4.678-3.177 7.735-3.177h2.219c.493 0 1.03-.024 1.587-.047z" stroke="#090C10" stroke-width="3" fill="#FFF" fill-rule="nonzero"/>
        <path fill="#FFF" fill-rule="nonzero" d="M46.094 22.305v-10.36l3.375 5.297 2.046-3.281-6.53-10.703h-3.282v19.047z"/>
        <g transform="rotate(45 13.01 42.689)">
            <path fill="#C74923" d="m3.871 0 3.585 10.036H0z"/>
            <path fill="#1353A2" d="m3.871 20.073 3.585-10.037H0z"/>
            <circle fill="#FFF" cx="3.728" cy="10.036" r="1.004"/>
        </g>
    </g>
</svg>
